<svg width="128" height="128" viewBox="0 0 128 128" fill="none" xmlns="http://www.w3.org/2000/svg">
<rect width="128" height="128" fill="#60DEA9"/>
<path fill-rule="evenodd" clip-rule="evenodd" d="M19 14H14V19V109V114H19H36V109H24H19V104V24V19H24H104H109V24V104V109H104H91V114H109H114V109V19V14H109H19Z" fill="black"/>
<path fill-rule="evenodd" clip-rule="evenodd" d="M76.4847 27C72.2355 25 66.691 24 59.8512 24H40V27H76.4847ZM82.138 31H40V34H49.453V32.6275H59.0109C63.0038 32.6275 66.3534 33.085 69.0596 34H84.5097C83.821 32.9236 83.0305 31.9236 82.138 31ZM40 41V38H49.453V41H40ZM76.9833 41C76.5139 39.8877 75.9123 38.8877 75.1782 38H86.4751C86.8226 38.9555 87.1107 39.9555 87.3394 41H76.9833ZM87.9097 45H78.0415C78.1685 45.9387 78.232 46.9312 78.232 47.9776L78.2319 48H87.9964C87.9988 47.8435 88 47.6866 88 47.5294C88 46.6637 87.9699 45.8206 87.9097 45ZM49.453 45H40V48H49.453V45ZM40 55V52H49.453V55H40ZM77.132 55C77.4733 54.078 77.7352 53.078 77.9176 52H87.6621C87.5053 53.0151 87.2941 54.0151 87.0283 55H77.132ZM85.6126 59H74.7272C74.2036 59.5665 73.6213 60.0753 72.9803 60.5266C72.1946 61.0798 71.3171 61.5709 70.348 62H84.0258C84.4492 61.3462 84.8286 60.6684 85.1641 59.9664C85.32 59.646 85.4695 59.3239 85.6126 59ZM49.453 59H40V62H49.453V59ZM40 69V66H80.553C79.3113 67.097 77.8926 68.097 76.2968 69H40ZM49.453 73H40V76H49.453V73ZM40 83V80H49.453V83H40ZM49.453 87H40V90H49.453V87ZM49.453 94H40V97H49.453V94ZM40 104V101H49.453V104H40Z" fill="black"/>
</svg>
