<?xml version="1.0" encoding="UTF-8"?>
<svg width="292px" height="72px" viewBox="0 0 292 72" version="1.1" xmlns="http://www.w3.org/2000/svg" xmlns:xlink="http://www.w3.org/1999/xlink">
    <title>PRIMITIF</title>
    <g id="Page-1" stroke="none" stroke-width="1" fill="none" fill-rule="evenodd">
        <path d="M11.8,72 L11.8,45.2 C13.3,45.6 14.9,45.8 16.6,45.8 C27.7,45.8 33,36.7 33,28.3 L33,8.4 C28.4,4.7 23,0.8 16.7,0.8 C5.7,0.8 0,9.3 0,18.2 L0,72 L11.8,72 Z M16.6,36.3 C15.1,36.3 13.3,35.4 11.8,34.4 L11.8,18.2 C11.8,13.4 13.7,10.3 16.7,10.3 C18.1,10.3 19.7,11.2 21.3,12.3 L21.3,28.3 C21.3,32.3 19.9,36.3 16.6,36.3 Z M54.8,72 L54.8,45.2 C56.3,45.6 57.8,45.8 59.6,45.8 C62.8,45.8 64.2,49.8 64.2,53.9 L64.2,72 L76,72 L76,53.9 C76,49.1 74.5,44.4 71,41 C74.1,37.6 76,32.6 76,28.3 L76,8.4 C71.3,4.7 65.9,0.8 59.7,0.8 C48.7,0.8 43,9.3 43,18.2 L43,72 L54.8,72 Z M59.6,36.3 C58.1,36.3 56.3,35.4 54.8,34.4 L54.8,18.2 C54.8,13.4 56.7,10.3 59.7,10.3 C61.1,10.3 62.6,11.2 64.2,12.3 L64.2,28.3 C64.2,32.3 62.8,36.3 59.6,36.3 Z M97.8,72 L97.8,0.8 L86,0.8 L86,72 L97.8,72 Z M119.5,72 L119.5,12.3 C121.1,11.2 122.7,10.3 124.1,10.3 C127,10.3 129,13.4 129,18.2 L129,72 L140.7,72 L140.7,18.2 C140.7,13.4 142.7,10.3 145.6,10.3 C147,10.3 148.6,11.2 150.2,12.3 L150.2,72 L161.9,72 L161.9,8.4 C157.3,4.7 151.9,0.8 145.6,0.8 C141.3,0.8 137.6,2.3 134.9,4.5 C132.2,2.2 128.5,0.8 124.1,0.8 C117.8,0.8 112.4,4.7 107.8,8.4 L107.8,72 L119.5,72 Z M183.7,72 L183.7,0.8 L171.9,0.8 L171.9,72 L183.7,72 Z M216.1,72 L216.1,10.3 L226.7,10.3 L226.7,0.8 L193.7,0.8 L193.7,10.3 L204.4,10.3 L204.4,72 L216.1,72 Z M248.5,72 L248.5,0.8 L236.7,0.8 L236.7,72 L248.5,72 Z M270.3,72 L270.3,46.3 L279.7,46.3 L279.7,36.7 L270.3,36.7 L270.3,12.3 C271.8,11.2 273.4,10.3 274.8,10.3 C277.8,10.3 279.7,13.4 279.7,18.2 L291.5,18.2 C291.5,9.3 285.8,0.8 274.8,0.8 C268.5,0.8 263.1,4.7 258.5,8.4 L258.5,72 L270.3,72 Z" id="PRIMITIF" fill="#070707" fill-rule="nonzero"></path>
    </g>
</svg>